<svg width="362" height="72" viewBox="0 0 362 72" fill="none" xmlns="http://www.w3.org/2000/svg">
<path d="M0.69099 70.8122H12.307L18.547 41.5802H22.771L22.579 70.8122H34.339L34.051 36.6362C36.067 35.6442 37.891 34.0442 39.523 31.8362C41.187 29.6282 42.499 27.0682 43.459 24.1562C44.451 21.2122 44.947 18.2202 44.947 15.1802C44.947 11.4362 44.259 8.54016 42.883 6.49216C41.539 4.44416 39.859 2.98816 37.843 2.12416C35.859 1.22816 33.891 0.700159 31.939 0.540159C29.987 0.348162 28.419 0.252163 27.235 0.252163H15.667L0.69099 70.8122ZM20.707 31.2122L25.123 10.5242C28.067 10.5242 30.131 11.0842 31.315 12.2042C32.531 13.3242 33.139 15.3562 33.139 18.3002C33.139 22.7482 32.003 26.0122 29.731 28.0922C27.459 30.1722 24.451 31.2122 20.707 31.2122ZM37.5932 70.8122H48.8732L54.1532 56.4122H67.0652L66.5372 70.8122H77.8172L79.8812 0.252163H65.4332L37.5932 70.8122ZM58.4252 45.4682L66.4412 25.4522L67.4492 22.8602H68.2652L68.1212 25.4522L67.6892 45.4682H58.4252ZM83.0035 70.8122H93.8035L104.315 20.7002L105.131 16.8602H105.995L105.755 21.0362L103.787 70.8122H108.251L127.547 21.0362L128.939 16.8602H129.755L128.843 21.3242L118.331 70.8122H129.083L144.059 0.252163H129.371L115.019 31.9802L113.291 37.1162H113.003L113.339 31.9802L112.715 0.252163L97.9795 0.252163L83.0035 70.8122ZM137.753 70.8122H149.513L154.025 49.5002L159.497 41.1482L160.697 39.4202H161.129L161.177 40.7642L163.337 70.8122H174.617L172.025 22.1402L187.577 0.252163H176.297L160.313 25.7882L159.257 27.2282H158.681L159.017 25.7402L164.489 0.252163H152.729L137.753 70.8122ZM195.927 71.5802C199.159 71.5802 202.135 70.9082 204.855 69.5642C207.575 68.1882 209.863 66.3162 211.719 63.9482C213.607 61.5482 214.871 58.8282 215.511 55.7882L227.223 0.252163H215.607L203.799 55.7882C203.447 57.4842 202.743 58.8602 201.687 59.9162C200.663 60.9722 199.431 61.5002 197.991 61.5002C196.615 61.5002 195.655 60.9722 195.111 59.9162C194.599 58.8602 194.519 57.4842 194.871 55.7882L206.631 0.252163H195.015L183.159 55.7882C182.167 60.3962 182.839 64.1882 185.175 67.1642C187.543 70.1082 191.127 71.5802 195.927 71.5802ZM220.816 70.8122H231.616L242.128 20.7002L242.944 16.8602H243.808L243.568 21.0362L241.6 70.8122H246.064L265.36 21.0362L266.752 16.8602H267.568L266.656 21.3242L256.144 70.8122H266.896L281.872 0.252163H267.184L252.832 31.9802L251.104 37.1162H250.816L251.152 31.9802L250.528 0.252163H235.792L220.816 70.8122ZM272.062 70.8122H283.342L288.622 56.4122H301.534L301.006 70.8122H312.286L314.35 0.252163H299.902L272.062 70.8122ZM292.894 45.4682L300.91 25.4522L301.918 22.8602H302.734L302.59 25.4522L302.158 45.4682H292.894ZM317.472 70.8122H329.088L335.328 41.5802H339.552L339.36 70.8122H351.12L350.832 36.6362C352.848 35.6442 354.672 34.0442 356.304 31.8362C357.968 29.6282 359.28 27.0682 360.24 24.1562C361.232 21.2122 361.728 18.2202 361.728 15.1802C361.728 11.4362 361.04 8.54016 359.664 6.49216C358.32 4.44416 356.64 2.98816 354.624 2.12416C352.64 1.22816 350.672 0.700159 348.72 0.540159C346.768 0.348162 345.2 0.252163 344.016 0.252163H332.448L317.472 70.8122ZM337.488 31.2122L341.904 10.5242C344.848 10.5242 346.912 11.0842 348.096 12.2042C349.312 13.3242 349.92 15.3562 349.92 18.3002C349.92 22.7482 348.784 26.0122 346.512 28.0922C344.24 30.1722 341.232 31.2122 337.488 31.2122Z" fill="#37393C"/>
</svg>
