<svg width="357" height="99" viewBox="0 0 357 99" fill="#f3ecec" id="logo"
     xmlns="http://www.w3.org/2000/svg">
     <path d="M0.916624 98.5552L12.4947 97.617L16.3533 67.9765L20.5635 
67.6354L22.7331 96.7874L34.4547 95.8376L31.4073 61.7965C33.3366 60.6449 
35.0254 58.9028 36.4737 56.5702C37.954 54.235 39.0549 51.5774 39.7766 
48.5974C40.5276 45.5829 40.7803 42.5606 40.5348 39.5305C40.2324 35.7988 
39.3127 32.9678 37.7758 31.0376C36.2708 29.1049 34.4787 27.7893 32.3995 
27.0909C30.3496 26.3581 28.3454 25.9908 26.3868 25.989C24.4257 25.9553 
22.855 25.9862 21.6749 26.0819L10.1447 27.0162L0.916624 98.5552ZM17.6688 
57.468L20.3995 36.4909C23.3338 36.2531 25.4363 36.6446 26.7069 37.6653C28.0094 
38.6834 28.7795 40.6596 29.0173 43.594C29.3766 48.0275 28.5079 51.3726 26.4113 
53.6293C24.3148 55.886 21.4006 57.1656 17.6688 57.468ZM37.6983 95.5747L48.9415 
94.6637L53.0412 79.8842L65.911 78.8414L66.5478 93.237L77.7909 92.3259L74.1492 
21.8297L59.7484 22.9967L37.6983 95.5747ZM56.4153 68.631L62.7884 48.0329L63.5838 
45.368L64.3971 45.3021L64.4629 47.8972L65.649 67.8827L56.4153 68.631ZM82.9602 
91.907L93.7249 91.0347L100.155 40.2374L100.658 36.344L101.519 36.2743L101.618 
40.456L103.676 90.2283L108.126 89.8678L123.338 38.6959L124.389 34.4211L125.202 
34.3552L124.653 38.8783L118.173 89.0537L128.89 88.1852L138.118 16.6462L123.478 
17.8325L111.735 50.616L110.428 55.8748L110.141 55.8981L110.061 50.7517L106.876 
19.1778L92.1883 20.368L82.9602 91.907ZM137.531 87.485L149.253 86.5351L152.029 
64.9283L156.808 56.1617L157.865 54.3424L158.295 54.3075L158.452 55.6432L163.032 
85.4186L174.275 84.5075L167.76 36.2039L181.494 13.1313L170.25 14.0424L156.381 
40.7859L155.445 42.3065L154.871 42.3531L155.085 40.8428L158.481 14.9961L146.759 
15.9459L137.531 87.485ZM195.577 83.5519C198.799 83.2908 201.711 82.3807 204.313 
80.8214C206.913 79.2302 209.042 77.1795 210.701 74.6693C212.389 72.1247 213.429 
69.3115 213.822 66.2297L221.01 9.92921L209.432 10.8674L202.148 67.1757C201.934 
68.8946 201.343 70.3229 200.376 71.4608C199.441 72.596 198.255 73.2218 196.82 
73.3381C195.449 73.4493 194.449 73.0005 193.822 71.9919C193.226 70.9807 193.035 
69.6157 193.249 67.8968L200.485 11.5924L188.907 12.5306L181.575 68.8427C180.959
 73.5158 181.935 77.2411 184.504 80.0187C187.102 82.7619 190.793 83.9396 195.577 
 83.5519ZM220.322 80.7762L231.087 79.9039L237.517 29.1066L238.021 25.2132L238.882 
 25.1434L238.98 29.3252L241.039 79.0975L245.488 78.737L260.701 27.5651L261.751 
 23.2903L262.564 23.2244L262.016 27.7475L255.535 77.9228L266.252 77.0544L275.48 
 5.51534L260.84 6.70166L249.097 39.4852L247.79 44.744L247.503 44.7672L247.423 
 39.6209L244.238 8.04693L229.551 9.23713L220.322 80.7762ZM271.401 76.6372L282.644 
 75.7261L286.744 60.9467L299.614 59.9038L300.25 74.2994L311.494 73.3883L307.852 
 2.89216L293.451 4.05909L271.401 76.6372ZM290.118 49.6934L296.491 29.0953L297.287 
 26.4304L298.1 26.3645L298.166 28.9597L299.352 48.9452L290.118 49.6934ZM316.663 
 72.9695L328.241 72.0313L332.1 42.3908L336.31 42.0496L338.479 71.2016L350.201 
 70.2518L347.154 36.2107C349.083 35.0591 350.772 33.317 352.22 30.9844C353.7 
 28.6492 354.801 25.9916 355.523 23.0116C356.274 19.9971 356.527 16.9748 356.281 
 13.9447C355.979 10.213 355.059 7.382 353.522 5.45183C352.017 3.51907 350.225 
 2.20352 348.146 1.50517C346.096 0.772338 344.092 0.405014 342.133 0.403196C340.172 
 0.369485 338.601 0.400444 337.421 0.496073L325.891 1.4304L316.663 72.9695ZM333.415 
 31.8822L336.146 10.9051C339.08 10.6673 341.183 11.0588 342.453 12.0795C343.756 
 13.0976 344.526 15.0739 344.764 18.0083C345.123 22.4417 344.254 25.7868 342.158 
 28.0435C340.061 30.3002 337.147 31.5798 333.415 31.8822Z"/>
</svg>
